<svg xmlns="http://www.w3.org/2000/svg" viewBox="0 0 590 660">
<rect width="100%" height="100%" rx="40" ry="40" fill="black"></rect>
<path d="M 462,458 Q 462,458 459.0,455.5 Q 456,453 450.0,453.0 Q 444,453 438.0,456.0 Q 432,459 428.5,462.0 Q 425,465 422.0,470.0 Q 419,475 419.0,482.0 Q 419,489 422.0,491.0 Q 425,493 429.5,493.0 Q 434,493 441.0,490.0 Q 448,487 453.0,482.5 Q 458,478 460.5,473.5 Q 463,469 462.5,463.5 Z" fill="white"></path><path d="M 146,456 Q 146,456 145.0,458.0 Q 144,460 144.0,464.5 Q 144,469 146.5,473.5 Q 149,478 152.0,481.0 Q 155,484 159.5,487.0 Q 164,490 168.0,491.5 Q 172,493 177.0,493.0 Q 182,493 185.0,491.0 Q 188,489 188.0,482.0 Q 188,475 185.0,470.0 Q 182,465 178.0,461.5 Q 174,458 168.5,455.5 Q 163,453 157.0,453.0 Q 151,453 148.5,454.5 Z" fill="white"></path><path d="M 120,119 Q 120,119 116.0,123.5 Q 112,128 109.0,133.0 Q 106,138 100.5,151.0 Q 95,164 90.5,179.5 Q 86,195 82.0,219.5 Q 78,244 75.5,272.5 Q 73,301 73.5,312.0 Q 74,323 76.5,335.5 Q 79,348 84.0,360.0 Q 89,372 96.0,382.0 Q 103,392 110.5,399.0 Q 118,406 126.5,411.5 Q 135,417 153.5,425.5 Q 172,434 182.0,442.0 Q 192,450 196.0,455.5 Q 200,461 204.0,469.0 Q 208,477 214.0,498.5 Q 220,520 223.5,526.5 Q 227,533 232.5,538.5 Q 238,544 240.0,545.0 Q 242,546 244.5,546.0 Q 247,546 248.5,544.0 Q 250,542 250.0,539.5 Q 250,537 251.0,536.0 Q 252,535 265.0,541.5 Q 278,548 286.0,550.0 Q 294,552 303.5,552.0 Q 313,552 319.5,550.5 Q 326,549 340.0,542.0 Q 354,535 355.5,535.5 Q 357,536 357.0,538.5 Q 357,541 358.0,543.0 Q 359,545 362.0,545.5 Q 365,546 367.0,545.0 Q 369,544 373.5,540.0 Q 378,536 382.5,528.5 Q 387,521 392.5,500.5 Q 398,480 402.0,471.5 Q 406,463 409.0,458.5 Q 412,454 419.0,447.0 Q 426,440 429.0,438.0 Q 432,436 452.0,426.5 Q 472,417 483.0,409.5 Q 494,402 503.0,392.0 Q 512,382 517.5,372.0 Q 523,362 525.5,355.0 Q 528,348 530.5,334.5 Q 533,321 533.0,303.0 Q 533,285 530.0,257.0 Q 527,229 524.5,214.5 Q 522,200 518.0,185.0 Q 514,170 510.0,159.5 Q 506,149 501.5,140.0 Q 497,131 492.0,125.0 Q 487,119 484.5,118.5 Q 482,118 481.0,119.5 Q 480,121 479.5,126.5 Q 479,132 480.0,139.0 Q 481,146 481.0,162.0 Q 481,178 479.0,193.5 Q 477,209 472.0,227.5 Q 467,246 460.5,259.5 Q 454,273 448.0,281.0 Q 442,289 435.0,296.0 Q 428,303 423.0,306.5 Q 418,310 405.0,315.5 Q 392,321 379.0,323.0 Q 366,325 361.0,326.5 Q 356,328 350.0,331.0 Q 344,334 340.0,337.5 Q 336,341 331.0,349.0 Q 326,357 318.5,385.0 Q 311,413 308.5,419.5 Q 306,426 304.5,427.0 Q 303,428 301.0,425.0 Q 299,422 291.0,392.0 Q 283,362 278.0,352.5 Q 273,343 269.5,339.5 Q 266,336 260.0,332.5 Q 254,329 247.5,327.0 Q 241,325 226.5,322.5 Q 212,320 200.5,315.0 Q 189,310 184.0,306.5 Q 179,303 171.5,295.5 Q 164,288 156.5,277.0 Q 149,266 144.5,256.0 Q 140,246 135.0,227.5 Q 130,209 128.0,193.0 Q 126,177 126.0,162.0 Q 126,147 127.0,135.5 Q 128,124 126.5,121.0 Q 125,118 122.5,118.5 Z" fill="white"></path>
</svg>
