<svg width="122" height="137" viewBox="0 0 122 137" fill="none" xmlns="http://www.w3.org/2000/svg">
<g clip-path="url(#clip0_3_22)">
<path d="M113.729 0H8.27119C3.70314 0 0 3.71739 0 8.30303V128.697C0 133.283 3.70314 137 8.27119 137H113.729C118.297 137 122 133.283 122 128.697V8.30303C122 3.71739 118.297 0 113.729 0Z" fill="white"></path>
<path d="M95.5322 95.0697C95.5322 95.0697 95.3254 94.8967 94.9119 94.5508C94.4983 94.2048 93.878 94.0318 93.0509 94.0318C92.2237 94.0318 91.3966 94.2394 90.5695 94.6545C89.7424 95.0697 89.0876 95.4848 88.6051 95.9C88.1226 96.3151 87.6746 96.8687 87.261 97.5606C86.8475 98.2525 86.6407 99.0828 86.6407 100.052C86.6407 101.02 86.8475 101.643 87.261 101.92C87.6746 102.196 88.1915 102.335 88.8119 102.335C89.4322 102.335 90.2249 102.127 91.1898 101.712C92.1548 101.297 92.9819 100.778 93.6712 100.155C94.3605 99.5326 94.8774 98.9098 95.222 98.2871C95.5667 97.6644 95.7045 96.9725 95.6356 96.2114L95.5322 95.0697Z" fill="black"></path>
<path d="M30.1898 94.6545C30.1898 94.6545 30.1209 94.7929 29.9831 95.0697C29.8452 95.3465 29.7763 95.7962 29.7763 96.4189C29.7763 97.0417 29.9486 97.6644 30.2932 98.2871C30.6379 98.9098 31.017 99.4288 31.4305 99.8439C31.8441 100.259 32.361 100.674 32.9814 101.089C33.6017 101.505 34.1876 101.816 34.739 102.023C35.2904 102.231 35.9107 102.335 36.6 102.335C37.2893 102.335 37.8407 102.196 38.2542 101.92C38.6678 101.643 38.8746 101.02 38.8746 100.052C38.8746 99.0828 38.6678 98.2525 38.2542 97.5606C37.8407 96.8687 37.3582 96.2806 36.8068 95.7962C36.2554 95.3119 35.6006 94.8967 34.8424 94.5508C34.0842 94.2048 33.2915 94.0318 32.4644 94.0318C31.6373 94.0318 31.0514 94.1356 30.7068 94.3432L30.1898 94.6545Z" fill="black"></path>
<path d="M24.8136 24.7015C24.8136 24.7015 24.5379 25.0129 23.9864 25.6356C23.435 26.2583 22.9525 26.9157 22.539 27.6076C22.1254 28.2995 21.5396 29.5449 20.7814 31.3439C20.0232 33.1429 19.3339 35.1149 18.7136 37.2598C18.0932 39.4048 17.5073 42.1725 16.9559 45.5629C16.4045 48.9533 15.9565 52.6204 15.6119 56.5644C15.2672 60.5083 15.1294 63.2414 15.1983 64.7636C15.2672 66.2859 15.474 67.9119 15.8186 69.6417C16.1633 71.3715 16.6802 73.0667 17.3695 74.7273C18.0588 76.3879 18.8859 77.9101 19.8509 79.2939C20.8158 80.6778 21.8153 81.854 22.8492 82.8227C23.8831 83.7914 24.9859 84.6563 26.1576 85.4174C27.3294 86.1785 29.1904 87.1472 31.7407 88.3235C34.291 89.4997 36.2554 90.6414 37.6339 91.7485C39.0124 92.8555 39.9774 93.7896 40.5288 94.5508C41.0802 95.3119 41.6316 96.2459 42.1831 97.353C42.7345 98.4601 43.4237 100.501 44.2509 103.477C45.078 106.452 45.7328 108.389 46.2153 109.289C46.6977 110.188 47.3181 111.018 48.0763 111.78C48.8345 112.541 49.3514 112.99 49.6271 113.129C49.9028 113.267 50.213 113.336 50.5576 113.336C50.9023 113.336 51.178 113.198 51.3848 112.921C51.5915 112.644 51.6949 112.333 51.6949 111.987C51.6949 111.641 51.7638 111.399 51.9017 111.261C52.0396 111.122 53.0045 111.503 54.7966 112.402C56.5887 113.302 58.0362 113.89 59.139 114.167C60.2418 114.443 61.448 114.582 62.7576 114.582C64.0672 114.582 65.1701 114.478 66.0661 114.27C66.9622 114.063 68.3751 113.475 70.3051 112.506C72.235 111.537 73.3034 111.088 73.5102 111.157C73.717 111.226 73.8203 111.434 73.8203 111.78C73.8203 112.125 73.8893 112.437 74.0271 112.714C74.165 112.99 74.4407 113.163 74.8542 113.233C75.2678 113.302 75.6124 113.267 75.8881 113.129C76.1638 112.99 76.6119 112.644 77.2322 112.091C77.8526 111.537 78.4729 110.742 79.0932 109.704C79.7136 108.666 80.4028 106.729 81.161 103.892C81.9192 101.055 82.574 99.0482 83.1254 97.872C83.6768 96.6957 84.1593 95.7962 84.5729 95.1735C84.9865 94.5508 85.6757 93.755 86.6407 92.7864C87.6057 91.8177 88.2949 91.1949 88.7085 90.9182C89.122 90.6414 90.7074 89.8457 93.4644 88.5311C96.2215 87.2164 98.3582 86.0401 99.8746 85.0023C101.391 83.9644 102.77 82.7535 104.01 81.3697C105.251 79.9859 106.25 78.602 107.008 77.2182C107.767 75.8343 108.318 74.6581 108.663 73.6894C109.007 72.7207 109.352 71.3023 109.697 69.4341C110.041 67.5659 110.214 65.3864 110.214 62.8954C110.214 60.4045 110.007 57.2217 109.593 53.347C109.18 49.4722 108.801 46.5316 108.456 44.525C108.111 42.5184 107.663 40.4773 107.112 38.4015C106.56 36.3258 106.009 34.5614 105.458 33.1083C104.906 31.6553 104.32 30.3061 103.7 29.0606C103.08 27.8151 102.425 26.7773 101.736 25.947C101.046 25.1167 100.529 24.6669 100.185 24.5977C99.8401 24.5285 99.5989 24.5977 99.461 24.8053C99.3232 25.0129 99.2198 25.4972 99.1509 26.2583C99.0819 27.0194 99.1164 27.8843 99.2542 28.853C99.3921 29.8217 99.461 31.4131 99.461 33.6273C99.461 35.8414 99.3232 38.021 99.0475 40.1659C98.7718 42.3109 98.2893 44.6634 97.6 47.2235C96.9107 49.7836 96.1181 51.9977 95.222 53.8659C94.326 55.7341 93.4644 57.2217 92.6373 58.3288C91.8102 59.4359 90.9141 60.4737 89.9492 61.4424C88.9842 62.4111 88.1571 63.1376 87.4678 63.622C86.7785 64.1063 85.5379 64.729 83.7458 65.4901C81.9537 66.2513 80.1616 66.7702 78.3695 67.047C76.5774 67.3237 75.3367 67.5659 74.6475 67.7735C73.9582 67.9811 73.2 68.2924 72.3729 68.7076C71.5458 69.1227 70.8565 69.5725 70.3051 70.0568C69.7537 70.5412 69.1333 71.3369 68.4441 72.4439C67.7548 73.551 66.8932 76.0419 65.8593 79.9167C64.8254 83.7914 64.1362 86.1785 63.7915 87.078C63.4469 87.9775 63.1712 88.4965 62.9644 88.6348C62.7576 88.7732 62.5164 88.6348 62.2407 88.2197C61.965 87.8045 61.2757 85.5212 60.1729 81.3697C59.0701 77.2182 58.174 74.4851 57.4847 73.1704C56.7955 71.8558 56.2096 70.9563 55.7271 70.472C55.2446 69.9876 54.5898 69.5033 53.7627 69.0189C52.9356 68.5346 52.074 68.154 51.178 67.8773C50.2819 67.6005 48.8345 67.2891 46.8356 66.9432C44.8367 66.5972 43.0446 66.0783 41.4593 65.3864C39.874 64.6944 38.7367 64.1063 38.0475 63.622C37.3582 63.1376 36.4966 62.3765 35.4627 61.3386C34.4288 60.3008 33.3949 59.0207 32.361 57.4985C31.3271 55.9763 30.5 54.5232 29.8797 53.1394C29.2593 51.7556 28.6045 49.7836 27.9153 47.2235C27.226 44.6634 26.7435 42.2763 26.4678 40.0621C26.1921 37.848 26.0542 35.703 26.0542 33.6273C26.0542 31.5515 26.1232 29.7179 26.261 28.1265C26.3989 26.5351 26.3644 25.5318 26.1576 25.1167C25.9509 24.7015 25.6751 24.5285 25.3305 24.5977L24.8136 24.7015Z" fill="black"></path>
</g>
<defs>
<clipPath id="clip0_3_22">
<rect width="122" height="137" fill="white"></rect>
</clipPath>
</defs>
</svg>
